<?xml version="1.0" encoding="UTF-8" standalone="no"?><svg width="79" height="16" viewBox="0 0 79 16" fill="none" xmlns="http://www.w3.org/2000/svg">
<g clip-path="url(#clip0_10637_54876)">
<path d="M0.89 11.705C0.305 11.245 0 10.57 0 9.725V9.695C0 7.195 2.69 6.87 3.58 6.87H5.625V6.69C5.625 6.335 5.47 5.785 4.95 5.535C4.21 5.15 2.75 5.275 1.52 6.045C1.365 6.14 1.175 6.105 1.165 5.905L1.09 4.69C1.085 4.63 1.105 4.565 1.17 4.535C2.03 4.03 3.06 3.77 4.04 3.77C5.02 3.77 6.085 4.06 6.635 4.645C7.17 5.21 7.42 6.075 7.42 7.185V12.09C7.42 12.23 7.31 12.305 7.19 12.305H3.06C2.14 12.3 1.415 12.135 0.89 11.715V11.705ZM2.32 10.51C2.595 10.71 2.87 10.8 3.18 10.8H5.625V8.37H3.675C2.215 8.37 1.89 9.245 1.89 9.705C1.89 10.025 2.045 10.27 2.32 10.505V10.51Z" fill="#FF5A00" />
<path d="M12.37 15.665V0.34C12.37 0.155 12.515 0 12.71 0C12.905 0 13.05 0.15 13.05 0.34V15.66C13.05 15.845 12.905 16 12.71 16C12.515 16 12.37 15.855 12.37 15.665Z" fill="#051774" />
<path d="M18.92 12.185C18.44 12.185 18.055 11.805 18.055 11.32V4.675C18.055 4.195 18.435 3.81 18.92 3.81H22.045C24.24 3.82 25.085 4.76 25.085 6.085C25.085 6.845 24.79 7.405 24.215 7.765C25.07 8.1 25.525 8.76 25.525 9.74C25.525 11.2 24.45 12.18 22.65 12.18H18.92V12.185ZM22.15 7.28C22.94 7.28 23.36 6.965 23.36 6.355C23.36 5.745 22.94 5.43 22.15 5.43H19.785V7.28H22.15V7.28ZM22.59 10.59C23.385 10.59 23.8 10.255 23.8 9.61C23.8 8.965 23.38 8.63 22.59 8.63H19.78V10.58H22.59V10.59Z" fill="#051774" />
<path d="M27.7 3.695C28.225 3.695 28.66 4.13 28.66 4.655C28.66 5.18 28.225 5.615 27.7 5.615C27.175 5.615 26.74 5.18 26.74 4.655C26.74 4.13 27.175 3.695 27.7 3.695V3.695ZM30.58 12.315C28.175 12.315 26.835 10.85 26.835 8.43V7.085C26.835 6.605 27.215 6.22 27.7 6.22C28.185 6.22 28.565 6.6 28.565 7.085V8.185C28.565 9.71 29.365 10.655 30.7 10.655C32.035 10.655 32.78 9.71 32.78 8.185V4.565C32.78 4.085 33.15 3.7 33.615 3.7C34.08 3.7 34.45 4.08 34.45 4.565V8.34C34.445 10.85 32.985 12.32 30.58 12.32V12.315Z" fill="#051774" />
<path d="M38.765 12.31C37.61 12.31 35.775 12.05 35.775 10.985C35.775 10.52 36.12 10.18 36.595 10.18C36.845 10.18 37.035 10.28 37.27 10.395C37.625 10.57 38.065 10.795 38.955 10.795C40.015 10.795 40.62 10.465 40.62 9.88C40.62 8.375 35.915 9.41 35.915 6.36C35.915 4.715 37.17 3.7 39.52 3.7C40.505 3.7 42.065 3.88 42.065 4.93C42.065 5.405 41.72 5.735 41.25 5.735C41.015 5.735 40.86 5.655 40.68 5.56C40.405 5.415 40.06 5.24 39.28 5.24C38.235 5.24 37.68 5.55 37.68 6.125C37.68 7.84 42.415 6.61 42.415 9.7C42.41 11.28 41.085 12.32 38.775 12.32L38.765 12.31Z" fill="#051774" />
<path d="M44.5 3.695C44.98 3.695 45.365 4.075 45.365 4.56V11.45C45.365 11.93 44.985 12.315 44.5 12.315C44.015 12.315 43.635 11.935 43.635 11.45V4.555C43.635 4.07 44.02 3.69 44.5 3.69V3.695Z" fill="#051774" />
<path d="M47.975 3.695C48.415 3.695 48.605 3.97 48.81 4.215L53.235 9.3V4.495C53.235 4.05 53.59 3.695 54.035 3.695C54.48 3.695 54.835 4.05 54.835 4.495V11.45C54.835 11.93 54.455 12.315 53.97 12.315C53.485 12.315 53.355 12.085 53.1 11.795L48.68 6.695V11.51C48.68 11.955 48.325 12.31 47.88 12.31C47.435 12.31 47.08 11.955 47.08 11.51V4.555C47.08 4.07 47.45 3.69 47.97 3.69L47.975 3.695Z" fill="#051774" />
<path d="M56.565 11.325V4.675C56.565 4.195 56.945 3.81 57.43 3.81H62.405C62.85 3.81 63.205 4.165 63.205 4.61C63.205 5.055 62.85 5.41 62.405 5.41H58.295V7.145H61.915C62.36 7.145 62.715 7.5 62.715 7.945C62.715 8.39 62.36 8.745 61.915 8.745H58.295V10.58H62.53C62.975 10.58 63.33 10.935 63.33 11.38C63.33 11.825 62.975 12.18 62.53 12.18H57.43C56.945 12.175 56.565 11.795 56.565 11.31V11.325Z" fill="#051774" />
<path d="M67.205 12.31C66.05 12.31 64.215 12.05 64.215 10.985C64.215 10.52 64.56 10.18 65.035 10.18C65.285 10.18 65.475 10.28 65.71 10.395C66.065 10.57 66.505 10.795 67.395 10.795C68.455 10.795 69.06 10.465 69.06 9.88C69.06 8.375 64.355 9.41 64.355 6.36C64.355 4.715 65.61 3.7 67.96 3.7C68.945 3.7 70.505 3.88 70.505 4.93C70.505 5.405 70.16 5.735 69.69 5.735C69.455 5.735 69.3 5.655 69.12 5.56C68.845 5.415 68.5 5.24 67.72 5.24C66.675 5.24 66.12 5.55 66.12 6.125C66.12 7.84 70.855 6.61 70.855 9.7C70.85 11.28 69.53 12.32 67.215 12.32L67.205 12.31Z" fill="#051774" />
<path d="M74.53 12.31C73.375 12.31 71.54 12.05 71.54 10.985C71.54 10.52 71.885 10.18 72.36 10.18C72.61 10.18 72.8 10.28 73.035 10.395C73.39 10.57 73.83 10.795 74.72 10.795C75.78 10.795 76.385 10.465 76.385 9.88C76.385 8.375 71.68 9.41 71.68 6.36C71.68 4.715 72.935 3.7 75.285 3.7C76.27 3.7 77.83 3.88 77.83 4.93C77.83 5.405 77.485 5.735 77.015 5.735C76.78 5.735 76.625 5.655 76.445 5.56C76.17 5.415 75.825 5.24 75.045 5.24C74 5.24 73.445 5.55 73.445 6.125C73.445 7.84 78.18 6.61 78.18 9.7C78.175 11.28 76.855 12.32 74.54 12.32L74.53 12.31Z" fill="#051774" />
</g>
<defs>
<clipPath id="clip0_10637_54876">
<rect width="78.5" height="16" fill="white" />
</clipPath>
</defs>
</svg>
